<?xml version="1.0" standalone="no"?>
<!DOCTYPE svg PUBLIC "-//W3C//DTD SVG 20010904//EN"
 "http://www.w3.org/TR/2001/REC-SVG-20010904/DTD/svg10.dtd">
<svg version="1.0" xmlns="http://www.w3.org/2000/svg"
 width="1200.000000pt" height="630.000000pt" viewBox="0 0 1200.000000 630.000000"
 preserveAspectRatio="xMidYMid meet">

<g transform="translate(0.000000,630.000000) scale(0.100000,-0.100000)"
fill="#000000" stroke="none">
<path d="M4618 6085 c-490 -82 -882 -479 -964 -975 -20 -124 -21 -3759 0
-3836 38 -144 170 -260 317 -282 l54 -7 6 -240 c5 -213 8 -246 26 -293 39 -97
106 -169 203 -215 l65 -32 265 -3 c179 -3 283 0 320 8 93 20 179 81 235 166
58 86 65 129 65 382 l0 222 790 0 790 0 0 -222 c0 -253 7 -296 65 -382 56 -85
142 -146 235 -166 37 -8 141 -11 320 -8 l265 3 65 32 c97 46 164 118 203 215
18 47 21 80 26 293 l6 240 54 7 c147 22 279 138 317 282 21 77 20 3712 0 3836
-83 499 -476 895 -971 975 -125 21 -2636 20 -2757 0z m2172 -570 l0 -195 -790
0 -790 0 0 195 0 195 790 0 790 0 0 -195z m1180 -1775 l0 -1180 -1970 0 -1970
0 0 1180 0 1180 1970 0 1970 0 0 -1180z m-3425 -1596 c179 -51 301 -251 266
-438 -49 -267 -342 -407 -576 -275 -75 41 -123 95 -163 178 -33 68 -36 83 -36
160 1 140 57 249 167 325 102 70 212 86 342 50z m3150 0 c28 -8 73 -30 101
-49 250 -172 219 -543 -56 -678 -60 -30 -72 -32 -165 -32 -93 0 -105 2 -165
32 -275 135 -306 506 -56 678 101 69 212 85 341 49z"/>
<path d="M2965 4507 c-33 -16 -60 -38 -80 -67 l-30 -43 -3 -436 c-3 -465 -2
-486 45 -542 46 -54 92 -69 226 -69 l117 0 0 590 0 590 -112 0 c-97 0 -120 -3
-163 -23z"/>
<path d="M8760 3940 l0 -590 118 0 c133 0 179 15 225 69 47 56 48 77 45 542
l-3 436 -30 43 c-48 69 -104 90 -242 90 l-113 0 0 -590z"/>
</g>
</svg>
